<svg xmlns="http://www.w3.org/2000/svg" width="256" height="256" viewBox="0 0 256 256"><defs><radialGradient id="sdv1_0" cx=".36" cy=".32" r=".74"><stop offset="0" stop-color="#c09875"/><stop offset="0.42" stop-color="#a8703f"/><stop offset="0.78" stop-color="#a8703f"/><stop offset="0.79" stop-color="#92623e"/></radialGradient><linearGradient id="sdv1_1" x2="0" y2="1"><stop offset="0" stop-color="#bc8866"/><stop offset="0.3" stop-color="#a9663b"/><stop offset="0.66" stop-color="#a9663b"/><stop offset="0.67" stop-color="#945b3a"/></linearGradient><radialGradient id="sdv1_2" cx=".36" cy=".32" r=".74"><stop offset="0" stop-color="#b1cf8c"/><stop offset="0.42" stop-color="#93bd5f"/><stop offset="0.78" stop-color="#93bd5f"/><stop offset="0.79" stop-color="#80a358"/></radialGradient><linearGradient id="sdv1_3"><stop offset="0" stop-color="#df6e6e"/><stop offset="0.3" stop-color="#d64545"/><stop offset="0.66" stop-color="#d64545"/><stop offset="0.67" stop-color="#ba3f43"/></linearGradient></defs><ellipse cx="128" cy="221" rx="78" ry="11" fill="#0b1120" opacity=".1"/><ellipse cx="128" cy="221" rx="64" ry="6.5" fill="#0b1120" opacity=".1"/><rect x="108" y="200" width="40" height="18" rx="4" fill="#a83a41"/><ellipse cx="128" cy="140" rx="80" ry="17" fill="#953640"/><path d="M58 144A8 8 0 0 1 59.8 135.5A8 8 0 0 1 64.9 127.5A8 8 0 0 1 73.3 120.3A8 8 0 0 1 84.4 114.3A8 8 0 0 1 97.6 109.8A8 8 0 0 1 112.4 107A8 8 0 0 1 128 106A8 8 0 0 1 143.6 107A8 8 0 0 1 158.4 109.8A8 8 0 0 1 171.6 114.3A8 8 0 0 1 182.7 120.3A8 8 0 0 1 191.1 127.5A8 8 0 0 1 196.2 135.5A8 8 0 0 1 198 144Z" fill="url(#sdv1_0)"/><path d="M79.7 121.5A5 2.2 30 1 0 88.3 126.5A5 2.2 30 1 0 79.7 121.5ZM172.2 131.2A5 2.2-40 1 0 179.8 124.8A5 2.2-40 1 0 172.2 131.2ZM144.3 133.3A5 2.2 70 1 0 147.7 142.7A5 2.2 70 1 0 144.3 133.3ZM99.3 141.7A5 2.2-20 1 0 108.7 138.3A5 2.2-20 1 0 99.3 141.7Z" fill="#5a3320"/><g transform="translate(106 104) rotate(-30)"><rect x="-42" y="-7" width="84" height="14" rx="7" fill="url(#sdv1_1)"/><path d="M-36-1H34" fill="none" stroke="#7d4526" stroke-width="1.6" stroke-linecap="round" opacity=".6"/><ellipse cx="42" cy="0" rx="4.5" ry="7" fill="#cf8f5c"/><ellipse cx="42" cy="0" rx="2" ry="3.4" fill="#9a5a32"/></g><g transform="translate(150 100) rotate(24)"><rect x="-35" y="-7" width="70" height="14" rx="7" fill="url(#sdv1_1)"/><path d="M-29-1H27" fill="none" stroke="#7d4526" stroke-width="1.6" stroke-linecap="round" opacity=".6"/><ellipse cx="35" cy="0" rx="4.5" ry="7" fill="#cf8f5c"/><ellipse cx="35" cy="0" rx="2" ry="3.4" fill="#9a5a32"/></g><g transform="translate(92 128) rotate(-20)"><path d="M-13 0A13 7 0 1 0 13 0A13 7 0 1 0-13 0Z" fill="url(#sdv1_2)"/><path d="M-9 0H9" fill="none" stroke="#6b9142" stroke-width="1.4" stroke-linecap="round"/></g><g transform="translate(166 128) rotate(30)"><path d="M-13 0A13 7 0 1 0 13 0A13 7 0 1 0-13 0Z" fill="url(#sdv1_2)"/><path d="M-9 0H9" fill="none" stroke="#6b9142" stroke-width="1.4" stroke-linecap="round"/></g><g transform="translate(136 122) rotate(8)"><path d="M-13 0A13 7 0 1 0 13 0A13 7 0 1 0-13 0Z" fill="url(#sdv1_2)"/><path d="M-9 0H9" fill="none" stroke="#6b9142" stroke-width="1.4" stroke-linecap="round"/></g><g transform="translate(114 128) rotate(10) scale(1.3)"><polygon points="0 -12 1.7 -4.1 8.5 -8.5 4.1 -1.7 12 0 4.1 1.7 8.5 8.5 1.7 4.1 0 12 -1.7 4.1 -8.5 8.5 -4.1 1.7 -12 0 -4.1 -1.7 -8.5 -8.5 -1.7 -4.1" fill="#7b4424"/><circle cx="0" cy="0" r="3.4" fill="#b06f3c"/></g><g transform="translate(160 108) rotate(-12) scale(1.05)"><polygon points="0 -12 1.7 -4.1 8.5 -8.5 4.1 -1.7 12 0 4.1 1.7 8.5 8.5 1.7 4.1 0 12 -1.7 4.1 -8.5 8.5 -4.1 1.7 -12 0 -4.1 -1.7 -8.5 -8.5 -1.7 -4.1" fill="#7b4424"/><circle cx="0" cy="0" r="3.4" fill="#b06f3c"/></g><path d="M48 140A80 17 0 0 0 208 140Q204 206 128 208Q52 206 48 140Z" fill="url(#sdv1_3)"/><path d="M54 146A74 13 0 0 0 202 146" fill="none" stroke="#e48686" stroke-width="3" stroke-linecap="round" opacity=".7"/><g transform="translate(62 212) rotate(18) scale(0.65)"><polygon points="0 -12 1.7 -4.1 8.5 -8.5 4.1 -1.7 12 0 4.1 1.7 8.5 8.5 1.7 4.1 0 12 -1.7 4.1 -8.5 8.5 -4.1 1.7 -12 0 -4.1 -1.7 -8.5 -8.5 -1.7 -4.1" fill="#7b4424"/><circle cx="0" cy="0" r="3.4" fill="#b06f3c"/></g><g transform="translate(196 214) rotate(18)"><path d="M-13 0A13 7 0 1 0 13 0A13 7 0 1 0-13 0Z" fill="url(#sdv1_2)"/><path d="M-9 0H9" fill="none" stroke="#6b9142" stroke-width="1.4" stroke-linecap="round"/></g></svg>
