<svg xmlns="http://www.w3.org/2000/svg" width="256" height="256" viewBox="0 0 256 256"><defs><linearGradient id="s34v1_0"><stop offset="0" stop-color="#df6e6e"/><stop offset="0.3" stop-color="#d64545"/><stop offset="0.66" stop-color="#d64545"/><stop offset="0.67" stop-color="#ba3f43"/></linearGradient><linearGradient id="s34v1_1"><stop offset="0" stop-color="#e99d9d"/><stop offset="0.3" stop-color="#e38181"/><stop offset="0.66" stop-color="#e38181"/><stop offset="0.67" stop-color="#c57276"/></linearGradient><radialGradient id="s34v1_2" cx=".36" cy=".32" r=".74"><stop offset="0" stop-color="#f9dc7a"/><stop offset="0.42" stop-color="#f7cf46"/><stop offset="0.78" stop-color="#f7cf46"/><stop offset="0.79" stop-color="#d4b243"/></radialGradient></defs><g transform="translate(-10 0)"><ellipse cx="120" cy="221" rx="76" ry="11" fill="#0b1120" opacity=".1"/><ellipse cx="120" cy="221" rx="62" ry="6.5" fill="#0b1120" opacity=".1"/><rect x="106" y="42" width="36" height="30" rx="7" fill="url(#s34v1_0)"/><rect x="106" y="42" width="36" height="8" rx="4" fill="#e07474"/><path d="M110 72H138Q140 84 150 90Q172 104 172 140V200Q172 218 154 218H94Q76 218 76 200V140Q76 104 98 90Q108 84 110 72Z" fill="url(#s34v1_1)"/><ellipse cx="124" cy="150" rx="30" ry="32" fill="#fbf7ee"/><g transform="translate(124 146) scale(1.2)"><path d="M0 8.5C-12 1-9.5-9-3.5-8.6C-1.6-8.4-.4-7 0-5.6C.4-7 1.6-8.4 3.5-8.6C9.5-9 12 1 0 8.5Z" fill="#d64545"/></g><rect x="111" y="170" width="26" height="2.6" rx="1.3" fill="#a8353b" opacity=".6"/><rect x="84" y="118" width="6" height="60" rx="3" fill="#ffffff" opacity=".4"/><g transform="translate(192 196)"><ellipse cx="0" cy="8" rx="18" ry="12" fill="url(#s34v1_2)"/><circle cx="-6" cy="-8" r="10" fill="url(#s34v1_2)"/><path d="M-16-8L-24-5L-16-3Z" fill="#f08a2c"/><circle cx="-9" cy="-10" r="1.6" fill="#2b2f3a"/></g></g></svg>
