<svg xmlns="http://www.w3.org/2000/svg" width="256" height="256" viewBox="0 0 256 256"><defs><radialGradient id="s1vv3_0" cx=".36" cy=".32" r=".74"><stop offset="0" stop-color="#bdd775"/><stop offset="0.42" stop-color="#a3c83f"/><stop offset="0.78" stop-color="#a3c83f"/><stop offset="0.79" stop-color="#8eac3e"/></radialGradient><radialGradient id="s1vv3_1" cx=".36" cy=".32" r=".74"><stop offset="0" stop-color="#e46e71"/><stop offset="0.42" stop-color="#d9363a"/><stop offset="0.78" stop-color="#d9363a"/><stop offset="0.79" stop-color="#bb3239"/></radialGradient></defs><ellipse cx="128" cy="221" rx="88" ry="11" fill="#0b1120" opacity=".1"/><ellipse cx="128" cy="221" rx="74" ry="6.5" fill="#0b1120" opacity=".1"/><g transform="translate(160 140) scale(1.4)"><path d="M0-18C-6-24-30-26-32-2C-33 18-18 32-8 32C-4 32-2 30 0 30C2 30 4 32 8 32C18 32 33 18 32-2C30-26 6-24 0-18Z" fill="url(#s1vv3_0)"/><path d="M0-18Q1-28 5-33" fill="none" stroke="#6b4226" stroke-width="3" stroke-linecap="round"/><ellipse cx="-16" cy="-6" rx="4" ry="9" fill="#ffffff" opacity=".3" transform="rotate(-20 -16 -6)"/></g><g transform="translate(110 158) scale(1.75)"><path d="M0-18C-6-24-30-26-32-2C-33 18-18 32-8 32C-4 32-2 30 0 30C2 30 4 32 8 32C18 32 33 18 32-2C30-26 6-24 0-18Z" fill="url(#s1vv3_1)"/><path d="M0-18Q1-28 5-33" fill="none" stroke="#6b4226" stroke-width="3" stroke-linecap="round"/><path d="M3.9-23.8A10 4.6-25 1 0 22.1-32.2A10 4.6-25 1 0 3.9-23.8Z" fill="#4e9f45"/><path d="M5-26L20-31" fill="none" stroke="#357a35" stroke-width="1" stroke-linecap="round" stroke-linejoin="round" opacity=".6"/><ellipse cx="-16" cy="-6" rx="4" ry="9" fill="#ffffff" opacity=".3" transform="rotate(-20 -16 -6)"/></g><g transform="translate(200 206) rotate(-16)"><path d="M-19 0C-28-2-30-12-24-18" fill="none" stroke="#9c8466" stroke-width="1.6" stroke-linecap="round"/><path d="M-13-9H11Q15-9 15-5V5Q15 9 11 9H-13L-21 0Z" fill="#2f6fd6"/><path d="M3-9H11Q15-9 15-5V5Q15 9 11 9H3Z" fill="#2455a8" opacity=".4"/><circle cx="-14" cy="0" r="2.5" fill="#ffffff"/><rect x="-7" y="-3.6" width="15" height="2.6" rx="1.3" fill="#ffffff" opacity=".9"/><rect x="-7" y="1.2" width="9" height="2.6" rx="1.3" fill="#ffffff" opacity=".7"/></g></svg>
