<svg xmlns="http://www.w3.org/2000/svg" width="256" height="256" viewBox="0 0 256 256"><defs><linearGradient id="s42v5_0"><stop offset="0" stop-color="#8167b3"/><stop offset="0.3" stop-color="#5d3c9e"/><stop offset="0.66" stop-color="#5d3c9e"/><stop offset="0.67" stop-color="#53378e"/></linearGradient></defs><ellipse cx="140" cy="210" rx="104" ry="11" fill="#0b1120" opacity=".1"/><ellipse cx="140" cy="210" rx="90" ry="6.5" fill="#0b1120" opacity=".1"/><polygon points="178 128 210 108 210 180 178 200" fill="#c2dbe8"/><polygon points="50 128 82 108 210 108 178 128" fill="#eaf4f9"/><rect x="50" y="128" width="128" height="72" fill="#e0eff6"/><rect x="58" y="136" width="8" height="52" rx="4" fill="#ffffff" opacity=".6"/><polygon points="181 126 213 106 213 120 181 140" fill="#6444a3"/><polygon points="47 126 79 106 213 106 181 126" fill="#9575d2"/><rect x="47" y="126" width="134" height="14" fill="#7b52c7"/><rect x="74" y="138" width="16" height="20" rx="3" fill="url(#s42v5_0)"/><rect x="138" y="138" width="16" height="20" rx="3" fill="url(#s42v5_0)"/><polygon points="181 138 213 118 213 134 181 154" fill="#5a3e94"/></svg>
