<svg xmlns="http://www.w3.org/2000/svg" width="256" height="256" viewBox="0 0 256 256"><defs><radialGradient id="s46v1_0" cx=".36" cy=".32" r=".74"><stop offset="0" stop-color="#f4bf66"/><stop offset="0.42" stop-color="#f0a62a"/><stop offset="0.78" stop-color="#f0a62a"/><stop offset="0.79" stop-color="#ce902c"/></radialGradient><linearGradient id="s46v1_1"><stop offset="0" stop-color="#df6e6e"/><stop offset="0.3" stop-color="#d64545"/><stop offset="0.66" stop-color="#d64545"/><stop offset="0.67" stop-color="#ba3f43"/></linearGradient><linearGradient id="s46v1_2"><stop offset="0" stop-color="#fcf9f2"/><stop offset="0.3" stop-color="#fbf7ee"/><stop offset="0.66" stop-color="#fbf7ee"/><stop offset="0.67" stop-color="#dad6d2"/></linearGradient></defs><g transform="translate(-12 0)"><ellipse cx="128" cy="221" rx="70" ry="11" fill="#0b1120" opacity=".1"/><ellipse cx="128" cy="221" rx="56" ry="6.5" fill="#0b1120" opacity=".1"/><path d="M92 98Q82 104 82 118V204Q82 218 96 218H160Q174 218 174 204V118Q174 104 164 98Z" fill="url(#s46v1_0)"/><rect x="88" y="64" width="80" height="36" rx="7" fill="url(#s46v1_1)"/><rect x="88" y="64" width="80" height="7" rx="3.5" fill="#e07474"/><path d="M88 94H168V104Q164 112 158 104Q152 116 146 104Q140 112 134 104Q128 114 122 104Q116 112 110 104Q104 116 98 104Q92 112 88 104Z" fill="#f0a62a"/><path d="M82 134Q128 142 174 134V188Q128 196 82 188Z" fill="url(#s46v1_2)"/><polygon points="144 160 136 173.9 120 173.9 112 160 120 146.1 136 146.1" fill="#d64545"/><polygon points="138 160 133 168.7 123 168.7 118 160 123 151.3 133 151.3" fill="#ffc94a"/><path d="M112 160H144" fill="none" stroke="#fbf7ee" stroke-width="1" stroke-linecap="round"/><ellipse cx="94" cy="124" rx="5" ry="8" fill="#ffffff" opacity=".4"/><rect x="90" y="196" width="6" height="12" rx="3" fill="#ffffff" opacity=".4"/><g transform="translate(182 176) rotate(24)"><rect x="-4" y="-60" width="8" height="70" rx="4" fill="#b98553"/><path d="M-14 10Q-14 0 0 0Q14 0 14 10V26Q14 36 0 36Q-14 36-14 26Z" fill="#c8904f"/><path d="M-14 12H14M-14 20H14M-14 28H14" fill="none" stroke="#9a6a36" stroke-width="2" stroke-linecap="round"/></g></g></svg>
