<svg xmlns="http://www.w3.org/2000/svg" width="256" height="256" viewBox="0 0 256 256"><defs><linearGradient id="s2vv2_0"><stop offset="0" stop-color="#dde2e9"/><stop offset="0.3" stop-color="#d3dae3"/><stop offset="0.66" stop-color="#d3dae3"/><stop offset="0.67" stop-color="#b8bdc9"/></linearGradient><linearGradient id="s2vv2_1"><stop offset="0" stop-color="#bac3ce"/><stop offset="0.3" stop-color="#a7b2c0"/><stop offset="0.66" stop-color="#a7b2c0"/><stop offset="0.67" stop-color="#929bab"/></linearGradient><linearGradient id="s2vv2_2"><stop offset="0" stop-color="#539770"/><stop offset="0.3" stop-color="#237a48"/><stop offset="0.66" stop-color="#237a48"/><stop offset="0.67" stop-color="#226c45"/></linearGradient><linearGradient id="s2vv2_3"><stop offset="0" stop-color="#5db37f"/><stop offset="0.3" stop-color="#2f9e5b"/><stop offset="0.66" stop-color="#2f9e5b"/><stop offset="0.67" stop-color="#2c8a55"/></linearGradient></defs><ellipse cx="128" cy="221" rx="50" ry="11" fill="#0b1120" opacity=".1"/><ellipse cx="128" cy="221" rx="36" ry="6.5" fill="#0b1120" opacity=".1"/><path d="M106 44V70A22 6 0 0 0 150 70V44Z" fill="url(#s2vv2_0)"/><ellipse cx="128" cy="44" rx="22" ry="6" fill="#ffffff"/><rect x="122" y="36" width="12" height="10" rx="2" fill="url(#s2vv2_1)"/><path d="M104 74Q104 62 118 60H138Q152 62 152 74Z" fill="url(#s2vv2_0)"/><path d="M104 74V208A24 6 0 0 0 152 208V74Z" fill="url(#s2vv2_2)"/><path d="M104 112A24 6 0 0 0 152 112V168A24 6 0 0 1 104 168Z" fill="url(#s2vv2_3)"/><polygon points="128 122 136 140 128 158 120 140" fill="#ffd24d"/><rect x="113" y="184" width="30" height="3" rx="1.5" fill="#ffffff" opacity=".6"/><rect x="118" y="189.4" width="20" height="3" rx="1.5" fill="#ffffff" opacity=".6"/><path d="M104 202A24 6 0 0 0 152 202V208A24 6 0 0 1 104 208Z" fill="#d3dae3"/><rect x="108" y="80" width="5" height="116" rx="2.5" fill="#ffffff" opacity=".4"/></svg>
