<svg xmlns="http://www.w3.org/2000/svg" width="256" height="256" viewBox="0 0 256 256"><defs><linearGradient id="smv3_0"><stop offset="0" stop-color="#5d8fdf"/><stop offset="0.3" stop-color="#2f6fd6"/><stop offset="0.66" stop-color="#2f6fd6"/><stop offset="0.67" stop-color="#2c62be"/></linearGradient><linearGradient id="smv3_1"><stop offset="0" stop-color="#dde2e9"/><stop offset="0.3" stop-color="#d3dae3"/><stop offset="0.66" stop-color="#d3dae3"/><stop offset="0.67" stop-color="#b8bdc9"/></linearGradient><linearGradient id="smv3_2"><stop offset="0" stop-color="#fcf9f2"/><stop offset="0.3" stop-color="#fbf7ee"/><stop offset="0.66" stop-color="#fbf7ee"/><stop offset="0.67" stop-color="#dad6d2"/></linearGradient></defs><ellipse cx="128" cy="221" rx="54" ry="11" fill="#0b1120" opacity=".1"/><ellipse cx="128" cy="221" rx="40" ry="6.5" fill="#0b1120" opacity=".1"/><path d="M96 62V206A32 8 0 0 0 160 206V62Z" fill="url(#smv3_0)"/><path d="M96 198A32 8 0 0 0 160 198V206A32 8 0 0 1 96 206Z" fill="url(#smv3_1)"/><path d="M96 112A32 8 0 0 0 160 112V176A32 8 0 0 1 96 176Z" fill="url(#smv3_2)"/><path d="M104 132Q128 123 152 132Q128 139 104 132Z" fill="#f3c451"/><path d="M104 132Q128 139 152 132Q128 142 104 132Z" fill="#d9a23a"/><path d="M104 144Q128 135 152 144Q128 151 104 144Z" fill="#f3c451"/><path d="M104 144Q128 151 152 144Q128 154 104 144Z" fill="#d9a23a"/><path d="M104 156Q128 147 152 156Q128 163 104 156Z" fill="#f3c451"/><path d="M104 156Q128 163 152 156Q128 166 104 156Z" fill="#d9a23a"/><path d="M104 168Q128 159 152 168Q128 175 104 168Z" fill="#f3c451"/><path d="M104 168Q128 175 152 168Q128 178 104 168Z" fill="#d9a23a"/><path d="M116 78.4Q128 73 140 78.4V89.2Q140 97 128 101.8Q116 97 116 89.2Z" fill="#fbf7ee"/><g transform="translate(128 88) scale(0.86)"><polygon points="0 -10 2.5 -3.5 9.5 -3.1 4.1 1.3 5.9 8.1 0 4.3 -5.9 8.1 -4.1 1.3 -9.5 -3.1 -2.5 -3.5" fill="#2f6fd6"/></g><path d="M93 48V62A35 9 0 0 0 163 62V48Z" fill="url(#smv3_1)"/><ellipse cx="128" cy="48" rx="35" ry="9" fill="#eef2f6"/><ellipse cx="128" cy="48" rx="28" ry="6.5" fill="#dfe5ec"/><rect x="111" y="186" width="34" height="3" rx="1.5" fill="#fbf7ee" opacity=".8"/><rect x="101" y="66" width="6" height="40" rx="3" fill="#ffffff" opacity=".3"/></svg>
