<svg xmlns="http://www.w3.org/2000/svg" width="256" height="256" viewBox="0 0 256 256"><defs><linearGradient id="sjv6_0"><stop offset="0" stop-color="#50b3b0"/><stop offset="0.3" stop-color="#1f9e9a"/><stop offset="0.66" stop-color="#1f9e9a"/><stop offset="0.67" stop-color="#1f8a8b"/></linearGradient><linearGradient id="sjv6_1"><stop offset="0" stop-color="#4a9592"/><stop offset="0.3" stop-color="#177773"/><stop offset="0.66" stop-color="#177773"/><stop offset="0.67" stop-color="#18696a"/></linearGradient><linearGradient id="sjv6_2"><stop offset="0" stop-color="#fcf9f2"/><stop offset="0.3" stop-color="#fbf7ee"/><stop offset="0.66" stop-color="#fbf7ee"/><stop offset="0.67" stop-color="#dad6d2"/></linearGradient></defs><ellipse cx="128" cy="221" rx="84" ry="11" fill="#0b1120" opacity=".1"/><ellipse cx="128" cy="221" rx="70" ry="6.5" fill="#0b1120" opacity=".1"/><path d="M60 118V204A68 14 0 0 0 196 204V118Z" fill="url(#sjv6_0)"/><rect x="60" y="194" width="136" height="4" fill="#ff8a5b" opacity=".9"/><path d="M55 100V120A73 15 0 0 0 201 120V100Z" fill="url(#sjv6_1)"/><ellipse cx="128" cy="100" rx="73" ry="16" fill="#35a8a4"/><ellipse cx="128" cy="100" rx="58" ry="11.5" fill="#1f9e9a"/><ellipse cx="128" cy="100" rx="44" ry="8" fill="#43aeaa"/><ellipse cx="128" cy="158" rx="42" ry="25" fill="url(#sjv6_2)"/><path d="M96 160a14 11.2 0 1 0 28 0a14 11.2 0 1 0-28 0ZM104.1 160a5.9 4.8 0 1 1 11.8 0a5.9 4.8 0 1 1-11.8 0Z" fill="#e2ad5f" fill-rule="evenodd"/><path d="M129 156a13 10.4 0 1 0 26 0a13 10.4 0 1 0-26 0ZM136.5 156a5.5 4.4 0 1 1 10.9 0a5.5 4.4 0 1 1-10.9 0Z" fill="#e2ad5f" fill-rule="evenodd"/><circle cx="126" cy="172" r="6" fill="#d69c4f"/><rect x="66" y="128" width="7" height="50" rx="3.5" fill="#ffffff" opacity=".3"/></svg>
