<svg xmlns="http://www.w3.org/2000/svg" width="256" height="256" viewBox="0 0 256 256"><defs><linearGradient id="s3qv6_0"><stop offset="0" stop-color="#50b3b0"/><stop offset="0.3" stop-color="#1f9e9a"/><stop offset="0.66" stop-color="#1f9e9a"/><stop offset="0.67" stop-color="#1f8a8b"/></linearGradient><linearGradient id="s3qv6_1"><stop offset="0" stop-color="#fcf9f2"/><stop offset="0.3" stop-color="#fbf7ee"/><stop offset="0.66" stop-color="#fbf7ee"/><stop offset="0.67" stop-color="#dad6d2"/></linearGradient></defs><ellipse cx="140" cy="210" rx="106" ry="11" fill="#0b1120" opacity=".1"/><ellipse cx="140" cy="210" rx="92" ry="6.5" fill="#0b1120" opacity=".1"/><polygon points="178 136 212 114 212 178 178 200" fill="#f4f6f9"/><polygon points="50 136 84 114 212 114 178 136" fill="#fbfcfd"/><rect x="50" y="136" width="128" height="64" fill="#1f9e9a"/><path d="M178 144L212 122M178 152L212 130M178 160L212 138M178 168L212 146M178 176L212 154M178 184L212 162M178 192L212 170" fill="none" stroke="#d4dae3" stroke-width="1.2" stroke-linecap="round" stroke-linejoin="round"/><polygon points="90 136 124 114 172 114 138 136" fill="#57b6b3"/><polygon points="178 156 212 134 212 158 178 180" fill="#1f8486"/><rect x="50" y="136" width="128" height="64" fill="url(#s3qv6_0)"/><rect x="84" y="148" width="60" height="40" rx="5" fill="url(#s3qv6_1)"/><g transform="translate(100 168) scale(0.9)"><path d="M-8 8C-9.5-3-3-9.5 9-9C9.5 3 3 9.5-8 8Z" fill="#1f9e9a"/></g><rect x="113" y="162" width="22" height="3" rx="1.5" fill="#177773" opacity=".7"/><rect x="117" y="167.4" width="14" height="3" rx="1.5" fill="#177773" opacity=".7"/><polygon points="90 136 124 114 172 114 138 136" fill="#57b6b3"/></svg>
