<svg xmlns="http://www.w3.org/2000/svg" width="256" height="256" viewBox="0 0 256 256"><defs><linearGradient id="s3nv4_0" x2="0" y2="1"><stop offset="0" stop-color="#dde2e9"/><stop offset="0.3" stop-color="#d3dae3"/><stop offset="0.66" stop-color="#d3dae3"/><stop offset="0.67" stop-color="#b8bdc9"/></linearGradient><linearGradient id="s3nv4_1" x2="0" y2="1"><stop offset="0" stop-color="#f4deaf"/><stop offset="0.3" stop-color="#f1d598"/><stop offset="0.66" stop-color="#f1d598"/><stop offset="0.67" stop-color="#d1b989"/></linearGradient><linearGradient id="s3nv4_2" x2="0" y2="1"><stop offset="0" stop-color="#c89a46"/><stop offset="0.3" stop-color="#b87d12"/><stop offset="0.66" stop-color="#b87d12"/><stop offset="0.67" stop-color="#a16e17"/></linearGradient><linearGradient id="s3nv4_3" x2="0" y2="1"><stop offset="0" stop-color="#e7b64d"/><stop offset="0.3" stop-color="#e0a21b"/><stop offset="0.66" stop-color="#e0a21b"/><stop offset="0.67" stop-color="#c38e1f"/></linearGradient></defs><ellipse cx="128" cy="206" rx="98" ry="11" fill="#0b1120" opacity=".1"/><ellipse cx="128" cy="206" rx="84" ry="6.5" fill="#0b1120" opacity=".1"/><g transform="translate(128 124) rotate(-28)"><path d="M-86-2L-100 0L-86 2Z" fill="#3c4454"/><path d="M-86-6L-70-7V7L-86 6Z" fill="url(#s3nv4_0)"/><rect x="-70" y="-8" width="120" height="16" rx="3" fill="url(#s3nv4_1)"/><rect x="-60" y="-2.5" width="98" height="5" rx="2.5" fill="#e0a21b"/><rect x="36" y="-9" width="56" height="18" rx="6" fill="url(#s3nv4_2)"/><rect x="46" y="-14" width="40" height="5" rx="2.5" fill="url(#s3nv4_0)"/><rect x="-66" y="-6" width="90" height="3" rx="1.5" fill="#ffffff" opacity=".4"/></g><g transform="translate(128 160) rotate(-18)"><path d="M-86-2L-100 0L-86 2Z" fill="#3c4454"/><path d="M-86-6L-70-7V7L-86 6Z" fill="url(#s3nv4_0)"/><rect x="-70" y="-8" width="120" height="16" rx="3" fill="url(#s3nv4_3)"/><rect x="36" y="-9" width="56" height="18" rx="6" fill="url(#s3nv4_2)"/><rect x="46" y="-14" width="40" height="5" rx="2.5" fill="url(#s3nv4_0)"/><rect x="-66" y="-6" width="90" height="3" rx="1.5" fill="#ffffff" opacity=".4"/></g></svg>
