<svg xmlns="http://www.w3.org/2000/svg" width="256" height="256" viewBox="0 0 256 256"><defs><linearGradient id="s9v2_0"><stop offset="0" stop-color="#539770"/><stop offset="0.3" stop-color="#237a48"/><stop offset="0.66" stop-color="#237a48"/><stop offset="0.67" stop-color="#226c45"/></linearGradient><linearGradient id="s9v2_1"><stop offset="0" stop-color="#fcf9f2"/><stop offset="0.3" stop-color="#fbf7ee"/><stop offset="0.66" stop-color="#fbf7ee"/><stop offset="0.67" stop-color="#dad6d2"/></linearGradient></defs><ellipse cx="138" cy="221" rx="78" ry="11" fill="#0b1120" opacity=".1"/><ellipse cx="138" cy="221" rx="64" ry="6.5" fill="#0b1120" opacity=".1"/><polygon points="164 90 188 74 188 202 164 218" fill="#2b8153"/><polygon points="70 90 94 74 188 74 164 90" fill="#d3dae3"/><rect x="70" y="90" width="94" height="128" fill="#2f9e5b"/><polygon points="77 88 98 77 182 77 161 88" fill="#e2e7ed"/><rect x="94" y="69" width="16" height="12" rx="2" fill="url(#s9v2_0)"/><ellipse cx="102" cy="69" rx="8" ry="3" fill="#6dbb8c"/><path d="M116 82Q142 44 172 77" fill="none" stroke="#a7b2c0" stroke-width="3.2" stroke-linecap="round"/><rect x="70" y="90" width="94" height="6" fill="#5db37f"/><rect x="70" y="210" width="94" height="8" fill="#2c8c56"/><rect x="81" y="114" width="72" height="74" rx="8" fill="url(#s9v2_1)"/><polygon points="130.8 140 123.9 151.9 110.1 151.9 103.3 140 110.1 128.1 123.9 128.1" fill="#2f9e5b"/><g transform="translate(117 140) scale(0.9)"><path d="M0-10C4-4.5 7-1 7 3A7 7 0 0 1-7 3C-7-1-4-4.5 0-10Z" fill="#ffffff"/></g><rect x="102" y="157.5" width="30" height="3.8" rx="1.9" fill="#237a48" opacity=".8"/><rect x="107" y="164.3" width="20" height="3.8" rx="1.9" fill="#237a48" opacity=".8"/><path d="M81 174Q100 168 117 174T153 174V180Q153 188 145 188H89Q81 188 81 180Z" fill="#2f9e5b"/></svg>
